<svg width="32" height="32" viewBox="0 0 32 32" fill="none" xmlns="http://www.w3.org/2000/svg">
    <mask id="mask0_12007_37" style="mask-type:alpha" maskUnits="userSpaceOnUse" x="0" y="0" width="32" height="32">
        <rect width="32" height="32" fill="#D9D9D9"/>
    </mask>
    <g mask="url(#mask0_12007_37)">
        <path d="M16.3998 30.2001C14.4887 30.0223 12.672 29.5334 10.9498 28.7334C9.22758 27.9334 7.70536 26.839 6.38314 25.4501C5.06092 24.0612 3.98869 22.4056 3.16647 20.4834C2.34425 18.5612 1.88869 16.389 1.7998 13.9667C4.04425 13.9667 6.04425 14.2834 7.7998 14.9167C9.55536 15.5501 11.0498 16.5279 12.2831 17.8501C13.5165 19.1723 14.4776 20.8556 15.1665 22.9001C15.8554 24.9445 16.2665 27.3779 16.3998 30.2001ZM15.9665 17.7667C15.2554 16.6112 14.4998 15.6723 13.6998 14.9501C12.8998 14.2279 11.8776 13.5667 10.6331 12.9667C10.7442 12.0779 10.9554 11.1223 11.2665 10.1001C11.5776 9.07786 11.9665 8.05564 12.4331 7.03341C12.8998 6.01119 13.4331 5.00008 14.0331 4.00008C14.6331 3.00008 15.2665 2.05564 15.9331 1.16675C16.6442 2.05564 17.3054 3.00008 17.9165 4.00008C18.5276 5.00008 19.072 6.02786 19.5498 7.08342C20.0276 8.13897 20.422 9.17786 20.7331 10.2001C21.0442 11.2223 21.2554 12.2001 21.3665 13.1334C20.3665 13.4445 19.3942 14.0223 18.4498 14.8667C17.5054 15.7112 16.6776 16.6779 15.9665 17.7667ZM19.3665 29.4001C19.2331 27.5779 19.0387 25.9334 18.7831 24.4667C18.5276 23.0001 18.1998 21.789 17.7998 20.8334C18.8665 18.6334 20.6165 16.8556 23.0498 15.5001C25.4831 14.1445 27.8665 13.6112 30.1998 13.9001C29.8442 18.0779 28.7498 21.4334 26.9165 23.9667C25.0831 26.5001 22.5665 28.3112 19.3665 29.4001Z" fill="#423C66"/>
    </g>
</svg>
