<svg width="107" height="19" viewBox="0 0 107 19" fill="none" xmlns="http://www.w3.org/2000/svg">
    <path d="M0 15.3125H2.8125V4.16667H4.04167L1.03125 2.26042L13.3958 15.3125H15.9896V0.28125H13.1875V11.3958H11.9479L14.9688 13.2917L2.59375 0.28125H0V15.3125Z" fill="#423C66"/>
    <path d="M22.5938 15.5104C23.309 15.5104 23.9722 15.4271 24.5833 15.2604C25.1944 15.0868 25.7326 14.8438 26.1979 14.5312C26.6632 14.2118 27.0243 13.8368 27.2812 13.4062H27.3333V15.3125H30.1042V8.30208C30.1042 7.42014 29.8681 6.66319 29.3958 6.03125C28.9236 5.39931 28.2431 4.91319 27.3542 4.57292C26.4653 4.23264 25.3958 4.0625 24.1458 4.0625C23 4.0625 22.0069 4.22222 21.1667 4.54167C20.3333 4.85417 19.6667 5.28819 19.1667 5.84375C18.6736 6.39236 18.3715 7.02083 18.2604 7.72917L18.2396 7.85417H20.875L20.9062 7.76042C21.0451 7.25347 21.3854 6.85069 21.9271 6.55208C22.4757 6.25347 23.2014 6.10417 24.1042 6.10417C25.1389 6.10417 25.934 6.30556 26.4896 6.70833C27.0521 7.11111 27.3333 7.67708 27.3333 8.40625V10.8229C27.3333 11.3785 27.1632 11.8646 26.8229 12.2812C26.4896 12.691 26.0174 13.0104 25.4062 13.2396C24.8021 13.4618 24.0938 13.5729 23.2812 13.5729C22.441 13.5729 21.7639 13.441 21.25 13.1771C20.7431 12.9062 20.4896 12.5 20.4896 11.9583V11.9375C20.4896 11.5139 20.6701 11.1771 21.0312 10.9271C21.3993 10.6771 21.9896 10.5417 22.8021 10.5208L28.7292 10.375V8.71875L22.4167 8.84375C21.3194 8.87153 20.4236 9.02083 19.7292 9.29167C19.0417 9.5625 18.5382 9.93403 18.2188 10.4062C17.8993 10.8785 17.7396 11.4306 17.7396 12.0625V12.0729C17.7396 12.816 17.9375 13.4444 18.3333 13.9583C18.7361 14.4653 19.3021 14.8507 20.0312 15.1146C20.7604 15.3785 21.6146 15.5104 22.5938 15.5104Z" fill="#423C66"/>
    <path d="M38.0833 15.5C38.4444 15.5 38.7882 15.4861 39.1146 15.4583C39.4479 15.4306 39.7465 15.3924 40.0104 15.3438V13.3646C39.8507 13.3924 39.6562 13.4167 39.4271 13.4375C39.2049 13.4583 38.9826 13.4688 38.7604 13.4688C37.9479 13.4688 37.3611 13.3229 37 13.0312C36.6458 12.7326 36.4688 12.2222 36.4688 11.5V6.33333H40.0104V4.3125H36.4688V1.47917H33.6875V4.3125H31.3542V6.33333H33.6875V11.8021C33.6875 13.0799 34.0417 14.0174 34.75 14.6146C35.4653 15.2049 36.5764 15.5 38.0833 15.5Z" fill="#423C66"/>
    <path d="M46.7917 15.5625C47.5139 15.5625 48.1736 15.4653 48.7708 15.2708C49.375 15.0694 49.8993 14.7882 50.3438 14.4271C50.7951 14.066 51.1528 13.6424 51.4167 13.1562H51.4792V15.3125H54.25V4.3125H51.4792V9.78125C51.4792 10.3368 51.3854 10.8368 51.1979 11.2812C51.0174 11.7257 50.7604 12.1042 50.4271 12.4167C50.0938 12.7292 49.7014 12.9688 49.25 13.1354C48.7986 13.2951 48.2986 13.375 47.75 13.375C46.7014 13.375 45.9062 13.0868 45.3646 12.5104C44.8229 11.934 44.5521 11.1146 44.5521 10.0521V4.3125H41.7812V10.5625C41.7812 11.6181 41.9826 12.5208 42.3854 13.2708C42.7951 14.0139 43.3715 14.5833 44.1146 14.9792C44.8646 15.3681 45.7569 15.5625 46.7917 15.5625Z" fill="#423C66"/>
    <path d="M56.4167 15.3125H59.1875V9.85417C59.1875 9.11111 59.3264 8.48611 59.6042 7.97917C59.8819 7.46528 60.2778 7.07986 60.7917 6.82292C61.3056 6.55903 61.9097 6.42708 62.6042 6.42708C62.8472 6.42708 63.0799 6.4375 63.3021 6.45833C63.5243 6.47917 63.7222 6.50694 63.8958 6.54167V4.19792C63.7639 4.17014 63.6042 4.14583 63.4167 4.125C63.2292 4.10417 63.0347 4.09375 62.8333 4.09375C61.9306 4.09375 61.1667 4.30903 60.5417 4.73958C59.9167 5.17014 59.4826 5.76736 59.2396 6.53125H59.1875V4.32292L56.4167 4.3125V15.3125Z" fill="#423C66"/>
    <path d="M65.4688 15.4688C65.9201 15.4688 66.2951 15.3229 66.5938 15.0312C66.8993 14.7326 67.0521 14.3715 67.0521 13.9479C67.0521 13.5174 66.8993 13.1562 66.5938 12.8646C66.2951 12.566 65.9201 12.4167 65.4688 12.4167C65.0174 12.4167 64.6389 12.566 64.3333 12.8646C64.0347 13.1562 63.8854 13.5174 63.8854 13.9479C63.8854 14.3715 64.0347 14.7326 64.3333 15.0312C64.6389 15.3229 65.0174 15.4688 65.4688 15.4688Z" fill="#423C66"/>
    <path d="M73.5729 15.5104C74.2882 15.5104 74.9514 15.4271 75.5625 15.2604C76.1736 15.0868 76.7118 14.8438 77.1771 14.5312C77.6424 14.2118 78.0035 13.8368 78.2604 13.4062H78.3125V15.3125H81.0833V8.30208C81.0833 7.42014 80.8472 6.66319 80.375 6.03125C79.9028 5.39931 79.2222 4.91319 78.3333 4.57292C77.4445 4.23264 76.375 4.0625 75.125 4.0625C73.9792 4.0625 72.9861 4.22222 72.1458 4.54167C71.3125 4.85417 70.6458 5.28819 70.1458 5.84375C69.6528 6.39236 69.3507 7.02083 69.2396 7.72917L69.2188 7.85417H71.8542L71.8854 7.76042C72.0243 7.25347 72.3646 6.85069 72.9062 6.55208C73.4549 6.25347 74.1806 6.10417 75.0833 6.10417C76.1181 6.10417 76.9132 6.30556 77.4688 6.70833C78.0312 7.11111 78.3125 7.67708 78.3125 8.40625V10.8229C78.3125 11.3785 78.1424 11.8646 77.8021 12.2812C77.4688 12.691 76.9965 13.0104 76.3854 13.2396C75.7812 13.4618 75.0729 13.5729 74.2604 13.5729C73.4201 13.5729 72.7431 13.441 72.2292 13.1771C71.7222 12.9062 71.4688 12.5 71.4688 11.9583V11.9375C71.4688 11.5139 71.6493 11.1771 72.0104 10.9271C72.3785 10.6771 72.9688 10.5417 73.7812 10.5208L79.7083 10.375V8.71875L73.3958 8.84375C72.2986 8.87153 71.4028 9.02083 70.7083 9.29167C70.0208 9.5625 69.5174 9.93403 69.1979 10.4062C68.8785 10.8785 68.7188 11.4306 68.7188 12.0625V12.0729C68.7188 12.816 68.9167 13.4444 69.3125 13.9583C69.7153 14.4653 70.2812 14.8507 71.0104 15.1146C71.7396 15.3785 72.5938 15.5104 73.5729 15.5104Z" fill="#423C66"/>
    <path d="M83.3125 15.3125H86.0833V0.28125H83.3125V15.3125Z" fill="#423C66"/>
    <path d="M88.4167 15.3125H91.1875V0.28125H88.4167V15.3125Z" fill="#423C66"/>
    <path d="M95.5833 19C96.4931 19 97.2778 18.875 97.9375 18.625C98.5972 18.3819 99.1806 17.9792 99.6875 17.4167C100.194 16.8611 100.681 16.1146 101.146 15.1771L106.375 4.3125H103.458L99.4062 13.375L99.9375 12.9167H99.2083L99.7396 13.375L95.4792 4.3125H92.5208L97.9688 15.2396L97.6979 15.7188C97.4201 16.1701 97.0799 16.4826 96.6771 16.6562C96.2743 16.8368 95.7847 16.9271 95.2083 16.9271C94.9722 16.9271 94.7431 16.9132 94.5208 16.8854C94.2986 16.8576 94.0972 16.8229 93.9167 16.7812V18.8333C94.1389 18.8819 94.3924 18.9201 94.6771 18.9479C94.9688 18.9826 95.2708 19 95.5833 19Z" fill="#423C66"/>
</svg>
